<svg width="32" height="32" viewBox="0 0 32 32" fill="none" xmlns="http://www.w3.org/2000/svg">
  <!-- Simple icon version for favicon -->
  <rect width="32" height="32" rx="6" fill="url(#gradient)"/>
  <path d="M16 6C16 6 11 9 11 14C11 16.5 12.5 18 14 19C14 19 12.5 20.5 12.5 22C12.5 23.5 13.5 25 16 25C18.5 25 19.5 23.5 19.5 22C19.5 20.5 18 19 18 19C19.5 18 21 16.5 21 14C21 9 16 6 16 6Z" fill="white"/>
  <circle cx="16" cy="16" r="2" fill="white" opacity="0.6"/>
  <defs>
    <linearGradient id="gradient" x1="0" y1="0" x2="32" y2="32" gradientUnits="userSpaceOnUse">
      <stop offset="0%" stop-color="#10b981"/>
      <stop offset="100%" stop-color="#059669"/>
    </linearGradient>
  </defs>
</svg>
