<svg width="48" height="48" viewBox="0 0 48 48" fill="none" xmlns="http://www.w3.org/2000/svg">
  <!-- Background with mirror effect -->
  <circle cx="24" cy="24" r="24" fill="#1E293B"/>
  
  <!-- Mirror frame -->
  <rect x="10" y="10" width="28" height="28" rx="4" fill="none" stroke="#94A3B8" stroke-width="2"/>
  
  <!-- Ghost figure -->
  <ellipse cx="24" cy="20" rx="8" ry="10" fill="#F1F5F9" opacity="0.9"/>
  
  <!-- Long hair -->
  <path d="M16 18 Q16 12 24 12 Q32 12 32 18 L32 35 Q32 38 28 38 L20 38 Q16 38 16 35 Z" fill="#1F2937" opacity="0.8"/>
  
  <!-- Pale face -->
  <ellipse cx="24" cy="22" rx="6" ry="8" fill="#F8FAFC"/>
  
  <!-- Dark hollow eyes -->
  <ellipse cx="21" cy="21" rx="2" ry="3" fill="#000000"/>
  <ellipse cx="27" cy="21" rx="2" ry="3" fill="#000000"/>
  
  <!-- Blood tears -->
  <path d="M21 24 L21 28" stroke="#DC2626" stroke-width="1.5" stroke-linecap="round"/>
  <path d="M27 24 L27 28" stroke="#DC2626" stroke-width="1.5" stroke-linecap="round"/>
  
  <!-- Creepy smile -->
  <path d="M20 26 Q24 28 28 26" stroke="#7C2D12" stroke-width="1.5" fill="none"/>
  
  <!-- Ghostly aura -->
  <circle cx="24" cy="24" r="20" fill="none" stroke="#E0E7FF" stroke-width="1" opacity="0.3"/>
</svg>
