<svg width="48" height="48" viewBox="0 0 48 48" fill="none" xmlns="http://www.w3.org/2000/svg">
  <!-- Background -->
  <circle cx="24" cy="24" r="24" fill="#1F2937"/>
  
  <!-- Vampire face -->
  <circle cx="24" cy="22" r="12" fill="#E5E7EB"/>
  
  <!-- Hair -->
  <path d="M12 18 Q12 10 24 10 Q36 10 36 18 L36 22 L12 22 Z" fill="#1F2937"/>
  
  <!-- Eyes (red vampire eyes) -->
  <circle cx="19" cy="21" r="2" fill="#DC2626"/>
  <circle cx="29" cy="21" r="2" fill="#DC2626"/>
  <circle cx="19" cy="21" r="1" fill="#FEE2E2"/>
  <circle cx="29" cy="21" r="1" fill="#FEE2E2"/>
  
  <!-- Fangs -->
  <path d="M21 26 L21 29 L22 26 Z" fill="#FFFFFF"/>
  <path d="M27 26 L27 29 L26 26 Z" fill="#FFFFFF"/>
  
  <!-- Cape -->
  <path d="M10 30 Q10 25 15 25 L15 40 Q15 45 10 45 Z" fill="#7C2D12"/>
  <path d="M38 30 Q38 25 33 25 L33 40 Q33 45 38 45 Z" fill="#7C2D12"/>
  
  <!-- Blood drip -->
  <circle cx="24" cy="28" r="1" fill="#DC2626" opacity="0.8"/>
</svg>
