<svg width="48" height="48" viewBox="0 0 48 48" fill="none" xmlns="http://www.w3.org/2000/svg">
  <!-- Background -->
  <circle cx="24" cy="24" r="24" fill="#0F172A"/>
  
  <!-- Hood -->
  <path d="M12 15 Q12 8 24 8 Q36 8 36 15 L36 30 Q36 35 24 35 Q12 35 12 30 Z" fill="#1F2937"/>
  
  <!-- Skull face -->
  <ellipse cx="24" cy="22" rx="8" ry="10" fill="#F3F4F6"/>
  
  <!-- Eye sockets (dark hollow) -->
  <ellipse cx="20" cy="20" rx="2.5" ry="3" fill="#000000"/>
  <ellipse cx="28" cy="20" rx="2.5" ry="3" fill="#000000"/>
  
  <!-- Nose hole -->
  <path d="M24 24 L22 26 L26 26 Z" fill="#000000"/>
  
  <!-- Teeth -->
  <rect x="20" y="28" width="2" height="3" fill="#000000"/>
  <rect x="23" y="28" width="2" height="3" fill="#000000"/>
  <rect x="26" y="28" width="2" height="3" fill="#000000"/>
  
  <!-- Scythe handle -->
  <line x1="38" y1="35" x2="32" y2="20" stroke="#6B7280" stroke-width="2"/>
  
  <!-- Scythe blade -->
  <path d="M32 20 Q28 18 28 22 Q28 24 32 23 Z" fill="#9CA3AF" stroke="#6B7280" stroke-width="1"/>
</svg>
